<svg width="400" height="384" viewBox="0 0 400 384" fill="none" xmlns="http://www.w3.org/2000/svg">
<path fill-rule="evenodd" clip-rule="evenodd" d="M361.795 34.6328C361.595 35.3255 361.395 36.0181 361.196 36.7105L361.194 36.7182C361.394 36.0232 361.594 35.3281 361.795 34.6328Z" fill="#48D1CC"/>
<path d="M399 270C398.893 203.057 366 20 366 20C366 20 363.197 29.7655 361.795 34.6328L361.196 36.7105L361.194 36.7182L361.192 36.7242C331.331 140.363 313.506 226.403 341 371.5C341 371.5 399.108 337.519 399 270Z" fill="#46A7A3"/>
<path d="M366 20C366 20 45 -11 20 7.50001C-5.00001 26 -2 282 16 346C34 410 341 371.5 341 371.5C313.506 226.403 331.331 140.363 361.192 36.7242L361.194 36.7182L361.196 36.7105L361.795 34.6328C363.197 29.7655 366 20 366 20Z" fill="#48D1CC"/>
<path d="M366 20C366 20 45 -11 20 7.50001C-5.00001 26 -2 282 16 346C34 410 341 371.5 341 371.5M366 20C366 20 398.893 203.057 399 270C399.108 337.519 341 371.5 341 371.5M366 20C366 20 363.197 29.7655 361.795 34.6328M341 371.5C313.506 226.403 331.331 140.363 361.192 36.7242M361.192 36.7242C361.193 36.7222 361.193 36.7202 361.194 36.7182M361.192 36.7242L361.194 36.7182M361.795 34.6328C361.595 35.3255 361.395 36.0181 361.196 36.7105M361.795 34.6328C361.594 35.3281 361.394 36.0232 361.194 36.7182M361.795 34.6328L361.196 36.7105M361.196 36.7105L361.194 36.7182M361.196 36.7105C361.195 36.7131 361.194 36.7156 361.194 36.7182" stroke="#695E33" stroke-width="2"/>
<path d="M179.5 195C193.096 195 209.134 201.573 224.51 212.002C239.825 222.39 254.131 236.366 264.238 250.64C274.436 265.041 279.978 279.196 278.73 290.06C278.121 295.362 275.899 299.905 271.704 303.485C267.45 307.115 260.964 309.926 251.572 311.281C232.149 314.082 220.518 314.228 213.38 313.03C209.846 312.436 207.538 311.533 205.962 310.554C204.421 309.598 203.454 308.491 202.704 307.272C202.056 306.219 201.6 305.151 201.055 303.874C200.916 303.55 200.772 303.212 200.617 302.857C199.9 301.213 198.989 299.304 197.446 297.586C194.199 293.969 188.941 292 179.5 292C169.965 292 163.884 293.878 159.102 296.733C156.761 298.13 154.813 299.714 153.02 301.254C152.563 301.646 152.122 302.03 151.689 302.407C150.375 303.552 149.128 304.638 147.724 305.705C144.15 308.422 139.685 310.902 132.03 312.186C124.269 313.487 113.163 313.569 96.3333 311.277C88.2634 310.179 83.016 307.595 79.8059 304.261C76.6369 300.969 75.1371 296.617 75.1966 291.28C75.3183 280.367 81.9827 266.019 92.9506 251.461C103.832 237.019 118.599 222.835 134.175 212.285C149.819 201.687 165.915 195 179.5 195Z" fill="#D9D9D9" stroke="black" stroke-width="6"/>
<path d="M212.5 291.5C222.5 292.5 228.5 269.75 228.5 269.75M228.5 269.75C228.5 269.75 243.5 254.5 244.5 248C245.5 241.5 264.469 272.915 253.5 279.5C244.515 284.894 234 284.5 228.5 269.75Z" stroke="black" stroke-width="5"/>
<path d="M99.3117 148.252C107.03 167.337 99.7549 186.906 84.9972 192.874C70.2394 198.842 51.4064 189.832 43.6883 170.748C35.9702 151.663 43.2451 132.094 58.0028 126.126C72.7606 120.158 91.5936 129.168 99.3117 148.252Z" fill="#D9D9D9" stroke="black" stroke-width="9"/>
<path d="M161.428 76.2767C170.502 94.7549 164.657 114.797 150.368 121.814C136.079 128.831 116.645 121.202 107.572 102.723C98.4977 84.2451 104.343 64.2025 118.632 57.1858C132.921 50.1691 152.355 57.7984 161.428 76.2767Z" fill="#D9D9D9" stroke="black" stroke-width="9"/>
<path d="M254.539 97.033C249.37 116.959 231.869 128.344 216.46 124.347C201.051 120.349 191.292 101.893 196.461 81.967C201.63 62.0406 219.131 50.6562 234.54 54.6534C249.948 58.6507 259.708 77.1066 254.539 97.033Z" fill="#D9D9D9" stroke="black" stroke-width="9"/>
<path d="M112.5 301C118.25 300.5 104.5 279.75 104.5 279.75M140 270C137.5 275 118.25 264.25 118.25 264.25M118.25 264.25C118.25 264.25 102.447 252.033 96.5 258.5C90.4977 265.027 104.5 279.75 104.5 279.75M118.25 264.25L104.5 279.75M166.5 275C176.5 272 166.5 245.25 166.5 245.25M201.5 215.5C189.5 223 175.352 205.086 166.5 215.5C158.976 224.352 166.5 245.25 166.5 245.25M166.5 245.25C179.5 245.25 204 245.25 181.5 245.25" stroke="black" stroke-width="5"/>
<path d="M310.078 168.626C303.816 188.236 285.714 198.636 270.549 193.794C255.385 188.952 246.66 169.985 252.922 150.374C259.184 130.764 277.286 120.364 292.451 125.206C307.615 130.048 316.34 149.015 310.078 168.626Z" fill="#D9D9D9" stroke="black" stroke-width="9"/>
<path d="M378 50C377 35.5 367.5 20 367.5 20L355 55C355 55 379 64.5 378 50Z" fill="#D9D9D9" stroke="black" stroke-width="2"/>
</svg>
